<svg width="326" height="384" viewBox="0 0 326 384" fill="none" xmlns="http://www.w3.org/2000/svg">
    <path d="M184.928 383.514C262.41 383.514 325.223 369.963 325.223 353.246C325.223 336.528 262.41 322.977 184.928 322.977C107.445 322.977 44.6328 336.528 44.6328 353.246C44.6328 369.963 107.445 383.514 184.928 383.514Z" fill="#DAF2EE"/>
    <path d="M129.262 209.188C128.625 213.154 124.569 215.937 120.734 216.117C118.854 216.208 117.002 215.64 115.497 214.51C113.991 213.381 112.928 211.761 112.491 209.931C111.895 206.911 112.867 202.831 115.486 200.905C116.129 200.261 116.895 199.753 117.739 199.411C118.718 199.046 119.763 198.888 120.806 198.947C121.85 199.006 122.87 199.281 123.802 199.754C127.246 201.329 129.882 205.271 129.262 209.188Z" fill="#BCE3DF"/>
    <path d="M109.912 194.653C110.262 197.733 109.431 200.83 107.587 203.32C105.514 205.951 102.708 207.908 99.5236 208.943C93.5661 210.845 87.0455 207.564 84.3197 202.088C83.3661 200.132 82.8388 197.996 82.7727 195.821C82.7066 193.646 83.1032 191.482 83.9362 189.471C84.3754 188.241 85.0395 187.104 85.8948 186.117C85.9682 186.019 86.0335 185.913 86.1151 185.823C86.1787 185.742 86.2561 185.673 86.3436 185.619C86.8602 185.077 87.4318 184.59 88.0493 184.167C89.5664 183.201 91.2612 182.549 93.034 182.247C94.8068 181.946 96.622 182.002 98.3729 182.412C104.322 183.677 109.26 188.533 109.912 194.653Z" fill="#BCE3DF"/>
    <path d="M196.565 106.149C194.689 109.915 191.914 113.162 188.485 115.601C185.056 118.041 181.079 119.598 176.906 120.136C178.717 123.782 179.369 127.894 178.774 131.921C178.185 136.204 176.433 140.244 173.71 143.602C170.986 146.96 167.395 149.508 163.326 150.968C154.675 154.061 144.76 152.356 136.933 147.745C136.541 151.167 135.295 154.437 133.31 157.252C131.115 160.359 128.22 162.905 124.858 164.684C121.497 166.464 117.763 167.426 113.96 167.494C106.224 167.633 98.6911 164.426 92.8723 159.415C90.0305 163.998 86.2371 167.917 81.749 170.906C73.3187 176.52 62.4646 178.455 52.9163 174.627C44.1678 171.126 36.8964 163.52 35.1173 154.127C28.5518 154.076 22.1325 152.182 16.5919 148.659C6.21937 142.13 -0.464449 130.705 0.0252081 118.39C0.482221 107.079 6.36627 96.0698 15.8248 89.8267C12.615 86.7367 10.4689 82.7076 9.69593 78.3197C8.87036 73.7846 9.22741 69.1132 10.7326 64.7562C12.2379 60.3992 14.8405 56.5036 18.2894 53.4452C25.4384 47.0796 35.1418 44.2478 44.6003 44.1417C42.225 39.564 41.2191 34.3988 41.7032 29.2643C42.658 18.655 49.3908 9.11489 59.796 6.00557C69.2056 3.19004 80.1984 5.64648 87.176 12.6323C88.0589 13.4061 88.8552 14.2735 89.5508 15.2193C92.7086 10.5536 96.9733 6.74319 101.964 4.12855C112.614 -1.48619 125.728 -1.58412 135.921 5.13234C145.6 11.4979 151.974 22.8008 151.835 34.4301C155.898 33.1656 160.203 32.8859 164.395 33.6141C172.98 35.0667 180.635 40.6325 184.104 48.6792C185.761 52.5111 186.525 56.6698 186.339 60.8407C186.152 65.0115 185.019 69.0853 183.026 72.754C187.274 74.4361 190.975 77.2606 193.717 80.9149C199.218 88.17 200.613 97.906 196.565 106.149Z" fill="#BCE3DF"/>
    <path d="M155.663 96.657C152.202 73.4528 148.734 50.2621 145.257 27.085C160.556 44.2906 177.064 60.3814 194.656 75.2346C189.936 81.2498 184.049 86.2484 177.348 89.9299C170.647 93.6114 163.271 95.8996 155.663 96.657Z" fill="#FDF4A8"/>
    <path d="M196.516 75.9035C190.672 80.9209 183.887 84.7257 176.558 87.0963C169.229 89.4669 161.502 90.356 153.826 89.7118C152.088 89.5649 152.006 92.2744 153.737 92.4213C161.766 93.073 169.845 92.123 177.504 89.6265C185.163 87.1299 192.25 83.1366 198.352 77.8785C199.683 76.7359 197.838 74.761 196.516 75.9035Z" fill="#466EB6"/>
    <path d="M185.728 65.7432C175.009 71.5604 162.848 74.183 150.685 73.3003C148.938 73.1779 148.857 75.8791 150.587 76.0097C163.222 76.9108 175.852 74.1782 186.985 68.1344C188.511 67.3101 187.286 64.9108 185.728 65.7432Z" fill="#466EB6"/>
    <path d="M174.759 55.5097C166.739 59.833 157.491 61.3143 148.522 59.7126C146.824 59.4107 146.025 61.9977 147.746 62.3078C157.393 64.0829 167.357 62.5321 176.008 57.909C177.542 57.0848 176.293 54.6855 174.759 55.5097Z" fill="#466EB6"/>
    <path d="M165.154 47.0869C164.884 47.0871 164.62 47.1639 164.391 47.3083C164.163 47.4528 163.98 47.659 163.865 47.903L163.546 47.9928L162.673 48.2213C162.053 48.3682 161.425 48.5069 160.796 48.6293C159.507 48.8823 158.201 49.0782 156.887 49.2088C154.34 49.4658 151.775 49.4904 149.224 49.2822C147.486 49.1435 147.396 51.8529 149.134 51.9835C152.219 52.1933 155.316 52.0921 158.381 51.6815C159.871 51.4911 161.354 51.2191 162.828 50.8654C164.159 50.5553 166.525 50.2534 166.46 48.4171C166.448 48.0723 166.307 47.7443 166.066 47.4981C165.824 47.2518 165.499 47.1051 165.154 47.0869V47.0869Z" fill="#466EB6"/>
    <path d="M158.519 40.3711C157.65 40.6096 156.767 40.7923 155.875 40.9179L155.214 40.9995C155.149 40.9995 154.92 40.9995 155.1 40.9995H154.773C154.316 40.9995 153.851 41.0567 153.386 41.0567C152.508 41.0634 151.631 41.017 150.758 40.9179L150.105 40.8363H149.926L149.599 40.7792C149.142 40.6894 148.693 40.5915 148.245 40.4772C147.904 40.385 147.54 40.4296 147.232 40.6014C146.923 40.7732 146.694 41.0588 146.593 41.3972C146.492 41.7356 146.527 42.1001 146.691 42.413C146.854 42.7259 147.134 42.9625 147.469 43.0724C151.293 44.0523 155.304 44.027 159.115 42.999C159.443 42.8997 159.721 42.68 159.893 42.384C160.066 42.0881 160.119 41.7378 160.044 41.4037C159.968 41.0697 159.769 40.7766 159.486 40.5835C159.203 40.3904 158.858 40.3116 158.519 40.363V40.3711Z" fill="#466EB6"/>
    <path d="M150.652 32.4222L150.276 32.5773C149.723 32.7658 149.151 32.8944 148.57 32.9609C148.002 33.0031 147.43 32.984 146.865 32.9037H147.004C146.671 32.8175 146.318 32.8522 146.008 33.0017C145.851 33.0834 145.711 33.1954 145.597 33.3312C145.484 33.467 145.398 33.6239 145.345 33.793C145.291 33.9621 145.272 34.14 145.288 34.3165C145.304 34.493 145.354 34.6646 145.437 34.8215C145.518 34.9843 145.632 35.1281 145.773 35.2435C145.914 35.3588 146.077 35.4431 146.253 35.4907C147.251 35.6797 148.273 35.71 149.28 35.5805C150.194 35.4491 151.081 35.1736 151.908 34.7644C152.224 34.5975 152.462 34.3133 152.57 33.9729C152.678 33.6326 152.649 33.2633 152.488 32.9445C152.308 32.6375 152.017 32.4117 151.675 32.3143C151.332 32.217 150.966 32.2557 150.652 32.4222V32.4222Z" fill="#466EB6"/>
    <path d="M160.592 20.7111C161.024 21.7557 160.159 22.8003 159.507 23.5347C158.666 24.4863 157.652 25.27 156.52 25.8443C155.007 26.5985 153.37 27.0714 151.688 27.2398C153.257 28.3128 154.712 29.5433 156.03 30.9122C157.05 31.9976 160.11 35.4089 157.989 36.78C157.066 37.3757 155.606 37.0003 154.643 36.6902C153.569 36.3258 152.539 35.8412 151.574 35.2457C149.643 34.0943 147.801 32.7984 146.065 31.3693C145.927 33.1891 145.984 35.0009 145.894 36.8208C145.848 37.9192 145.706 39.0115 145.47 40.0852C145.217 41.1869 144.874 42.5334 143.748 43.0802C142.377 43.7005 141.577 42.5171 141.136 41.3991C140.714 40.3004 140.4 39.1634 140.198 38.0041C139.874 36.0357 139.746 34.0402 139.814 32.0466C138.81 32.5547 137.734 32.907 136.623 33.0912C135.505 33.2708 132.788 33.7604 132.543 32.1282C132.529 31.763 132.601 31.3996 132.754 31.0677C132.908 30.7358 133.137 30.4448 133.424 30.2186C134.868 28.7186 136.659 27.5975 138.639 26.9542C137.275 25.9224 135.98 24.8019 134.763 23.6C133.653 22.4657 131.702 20.0092 133.62 18.7035C135.138 17.6425 137.619 18.377 139.145 19.0299C140.048 19.4218 140.907 19.9088 141.707 20.4826C142.189 20.8172 142.63 21.2497 143.127 21.5924C143.26 19.3173 143.533 17.0524 143.944 14.8107C144.137 13.5814 144.624 12.4169 145.364 11.4157C146.016 10.5996 146.996 10.0202 148.024 10.5996C148.428 10.8989 148.762 11.2823 149.003 11.7234C149.244 12.1644 149.386 12.6526 149.42 13.154C149.99 16.1484 149.864 19.2338 149.052 22.1719C150.823 21.5843 152.553 20.8743 154.349 20.3601C155.436 20.0258 156.554 19.8042 157.687 19.6991C158.723 19.593 160.119 19.5359 160.592 20.7111Z" fill="#4E3275"/>
    <path d="M34.355 105.361L24.1553 140.606L60.216 151.042L70.4157 115.797L34.355 105.361Z" fill="white"/>
    <path d="M35.9322 107.464L26.7329 139.252L58.5291 148.453L67.7283 116.665L35.9322 107.464Z" fill="#371E5B"/>
    <path d="M34.2035 113.453C39.198 116.995 42.1033 122.504 43.0989 128.526C43.6946 132.125 43.5559 135.716 43.8089 139.331C43.9226 141.08 44.2459 142.809 44.7719 144.481L37.6882 142.424C37.4974 141.375 37.3666 140.315 37.2965 139.25C36.8476 132.558 37.1659 125.131 32.2285 120.235L34.2035 113.453Z" fill="#4E3275"/>
    <path d="M45.5063 110.245L54.8506 112.946C55.3467 114.106 55.7719 115.294 56.1237 116.505C57.5111 121.287 57.8375 126.298 58.6781 131.194C58.9586 133.378 59.5324 135.513 60.3838 137.544C60.6446 138.07 60.9334 138.582 61.2488 139.078L59.1596 146.349C54.059 142.603 52.5819 134.532 51.7576 128.575C50.8273 121.923 49.6684 114.897 45.5063 110.245Z" fill="#4E3275"/>
    <path d="M90.5686 55.4581L56.0972 77.5205L78.8722 113.106L113.344 91.0431L90.5686 55.4581Z" fill="white"/>
    <path d="M90.3357 58.3784L59.2461 78.2764L79.1484 109.373L110.238 89.4749L90.3357 58.3784Z" fill="#371E5B"/>
    <path d="M84.4585 62.1279C86.0418 68.7709 84.4585 75.5282 80.8351 81.3143C78.6887 84.7664 75.9385 87.6799 73.4902 90.8953C72.3067 92.4489 71.3096 94.1362 70.5196 95.9224L66.0801 88.9938C66.7119 87.9727 67.3984 86.9865 68.1366 86.0395C72.6905 80.0983 78.4276 74.0756 77.8726 66.3798L84.4585 62.1279Z" fill="#4E3275"/>
    <path d="M96.3328 67.7432L102.184 76.8834C101.75 78.2203 101.232 79.5286 100.634 80.8007C98.2833 85.836 94.9209 90.2592 91.9993 94.9844C90.616 97.0177 89.5176 99.2308 88.7349 101.562C88.5645 102.196 88.431 102.839 88.3351 103.488L81.2105 108.05C79.6844 101.154 84.3851 93.2951 88.0739 87.6967C92.2033 81.4536 96.4062 74.7126 96.3328 67.7432Z" fill="#4E3275"/>
    <path d="M165.782 51.2806L131.342 38.623L118.215 74.3415L152.654 86.9991L165.782 51.2806Z" fill="white"/>
    <path d="M132.539 41.2954L121.12 72.3643L152.181 83.7802L163.6 52.7114L132.539 41.2954Z" fill="#371E5B"/>
    <path d="M157.744 50.5475C153.851 55.2809 148.155 57.7945 142.075 58.3576C138.443 58.7003 134.869 58.3168 131.245 58.3086C129.495 58.3041 127.751 58.504 126.047 58.9044L128.593 51.9839C129.653 51.8705 130.718 51.816 131.784 51.8207C138.5 51.8207 145.911 52.6367 151.101 48.1074L157.744 50.5475Z" fill="#4E3275"/>
    <path d="M160.143 62.0469L156.789 71.179C155.601 71.5936 154.388 71.9343 153.157 72.1991C148.261 73.2519 143.283 73.2274 138.345 73.717C136.146 73.8394 133.974 74.2623 131.89 74.9738C131.346 75.1917 130.817 75.4452 130.307 75.7328L123.182 73.1131C127.263 68.29 135.424 67.4005 141.438 66.9843C148.114 66.5272 155.206 65.8744 160.143 62.0469Z" fill="#4E3275"/>
    <path d="M114.066 54.338C113.903 55.4219 113.489 56.453 112.858 57.3494C112.744 57.5126 112.638 57.6676 112.516 57.8309C108.011 63.9352 95.4348 69.3215 95.4348 69.3215C81.855 57.6595 83.4137 49.1313 83.4137 49.1313C83.4137 48.9517 83.4382 48.7722 83.4872 48.5927C83.8253 46.7858 84.7543 45.1424 86.1281 43.921C87.5019 42.6996 89.2427 41.9694 91.0767 41.8451C92.9108 41.7209 94.7341 42.2096 96.2602 43.2346C97.7862 44.2595 98.9284 45.7625 99.5071 47.5073C100.679 46.0915 102.289 45.1054 104.083 44.704C105.876 44.3025 107.753 44.5085 109.417 45.2896C111.081 46.0706 112.438 47.3824 113.275 49.0188C114.112 50.6552 114.382 52.5234 114.042 54.3298L114.066 54.338Z" fill="#FDF4A8"/>
    <path d="M55.6422 95.2617C56.0112 96.1266 56.1759 97.0649 56.1237 98.0037C56.1237 98.1751 56.1237 98.3383 56.1237 98.5179C55.5932 105.047 48.8604 114.628 48.8604 114.628C33.6729 112.269 30.9063 105.34 30.9063 105.34C30.8355 105.203 30.7728 105.061 30.7186 104.916C30.1512 103.445 30.0877 101.827 30.5382 100.316C30.9887 98.8055 31.9276 97.4866 33.2079 96.5665C34.4883 95.6464 36.0377 95.1769 37.6134 95.2318C39.1891 95.2866 40.7021 95.8625 41.9154 96.8694C42.1287 95.3063 42.8548 93.8582 43.9797 92.7522C45.1046 91.6462 46.5649 90.9448 48.1314 90.7581C49.6978 90.5714 51.282 90.9099 52.6354 91.7205C53.9888 92.5311 55.0348 93.768 55.6095 95.2372L55.6422 95.2617Z" fill="#FDF4A8"/>
    <path d="M57.5482 49.2509V68.1925C57.5439 69.4703 57.0344 70.6946 56.1308 71.5982C55.2272 72.5017 54.0029 73.0113 52.7251 73.0156L53.2147 81.2745L40.1083 73.0156H22.1542C20.8763 73.0113 19.652 72.5017 18.7485 71.5982C17.8449 70.6946 17.3354 69.4703 17.3311 68.1925V49.2509C17.3354 47.973 17.8449 46.7488 18.7485 45.8452C19.652 44.9416 20.8763 44.4321 22.1542 44.4278H52.6924C53.328 44.4256 53.9577 44.5487 54.5457 44.7899C55.1336 45.0311 55.6683 45.3858 56.1192 45.8337C56.5701 46.2815 56.9284 46.8138 57.1736 47.4001C57.4188 47.9865 57.5461 48.6154 57.5482 49.2509V49.2509Z" fill="#FDF4A8"/>
    <path d="M29.0253 57.9417C29.0269 58.7233 28.7966 59.4878 28.3636 60.1384C27.9305 60.789 27.3142 61.2966 26.5926 61.5968C25.871 61.897 25.0766 61.9764 24.3098 61.8249C23.5431 61.6734 22.8385 61.2979 22.2853 60.7458C21.7321 60.1937 21.3551 59.4899 21.202 58.7235C21.0489 57.9571 21.1267 57.1625 21.4254 56.4402C21.7241 55.718 22.2304 55.1006 22.8801 54.6663C23.5298 54.2319 24.2938 54 25.0754 54C25.5937 53.9989 26.1071 54.1001 26.5863 54.2977C27.0655 54.4953 27.501 54.7855 27.8679 55.1516C28.2348 55.5178 28.5259 55.9527 28.7245 56.4314C28.9231 56.9102 29.0253 57.4234 29.0253 57.9417V57.9417Z" fill="white"/>
    <path d="M40.8422 57.9417C40.8438 58.7233 40.6135 59.4878 40.1805 60.1384C39.7474 60.789 39.1311 61.2966 38.4095 61.5968C37.6879 61.897 36.8934 61.9764 36.1267 61.8249C35.36 61.6734 34.6554 61.2979 34.1022 60.7458C33.549 60.1937 33.172 59.4899 33.0189 58.7235C32.8658 57.9571 32.9436 57.1625 33.2423 56.4402C33.541 55.718 34.0472 55.1006 34.697 54.6662C35.3467 54.2319 36.1107 54 36.8923 54C37.9384 54 38.9419 54.415 39.6824 55.154C40.4229 55.893 40.84 56.8956 40.8422 57.9417Z" fill="white"/>
    <path d="M53.2142 57.9417C53.2159 58.7233 52.9856 59.4878 52.5525 60.1384C52.1195 60.789 51.5032 61.2966 50.7816 61.5968C50.06 61.897 49.2655 61.9764 48.4988 61.8249C47.732 61.6734 47.0275 61.2979 46.4742 60.7458C45.921 60.1937 45.544 59.4899 45.3909 58.7235C45.2379 57.9571 45.3156 57.1625 45.6143 56.4402C45.9131 55.718 46.4193 55.1006 47.0691 54.6662C47.7188 54.2319 48.4828 54 49.2643 54C50.3105 54 51.3139 54.415 52.0545 55.154C52.795 55.893 53.2121 56.8956 53.2142 57.9417Z" fill="white"/>
    <path d="M298.757 204.928C287.691 210.682 273.564 209.433 262.481 204.349C257.12 201.9 252.248 198.163 249.106 193.103C246.165 188.519 245.004 183.018 245.841 177.638C237.566 176.422 229.315 174.504 221.644 171.109C216.316 168.8 211.442 165.561 207.248 161.544C206.497 160.826 205.779 160.067 205.094 159.276C204.702 158.851 204.335 158.402 203.967 157.945L203.772 157.709C198.901 151.333 195.997 143.676 195.415 135.674C194.672 126.697 195.472 117.614 199.414 109.706C201.348 104.736 205.265 100.272 208.954 96.3956C217.221 87.7205 230.67 84.652 242.275 86.1454C248.023 86.7722 253.488 88.9657 258.075 92.4865C262.31 95.8896 265.362 100.501 268.186 105.087C271.01 109.673 273.727 114.521 277.481 118.495C281.235 122.47 286.107 124.926 291.061 127.211C295.811 129.407 300.756 131.602 304.518 135.372C308.255 139.178 310.337 144.305 310.313 149.638C310.339 152.413 309.895 155.172 308.999 157.799C308.574 159.045 308.053 160.256 307.44 161.422C306.763 162.703 305.759 163.813 305.131 165.103C305.021 165.283 304.959 165.489 304.95 165.7C304.942 165.911 304.987 166.121 305.082 166.31C305.377 166.727 305.748 167.084 306.175 167.363C306.657 167.748 307.115 168.163 307.546 168.604C308.422 169.492 309.206 170.465 309.888 171.509C311.322 173.722 312.314 176.191 312.81 178.78C314.956 189.708 308.338 199.942 298.757 204.928Z" fill="#4E3275"/>
    <path d="M298.757 204.929C287.691 210.682 273.564 209.433 262.481 204.349C257.12 201.901 252.248 198.163 249.106 193.103C246.166 188.52 245.004 183.019 245.841 177.638C237.566 176.422 229.315 174.505 221.644 171.11C216.316 168.8 211.442 165.562 207.248 161.545C206.508 157.059 206.431 152.489 207.02 147.981C207.362 143.036 208.554 137.846 211.288 133.822C214.43 129.219 219.783 126.918 225.21 126.477C230.957 126.058 236.669 127.667 241.353 131.023C245.743 134.132 249.244 138.254 252.778 142.236C256.561 146.635 260.933 150.491 265.77 153.694C271 156.909 276.661 159.363 282.582 160.982C288.548 162.704 294.644 163.912 300.699 165.283C302.127 165.601 303.604 165.911 305.082 166.254C305.377 166.67 305.748 167.027 306.175 167.307C306.657 167.692 307.115 168.106 307.546 168.547C308.422 169.435 309.206 170.408 309.888 171.452C311.322 173.665 312.314 176.134 312.81 178.724C314.956 189.708 308.338 199.942 298.757 204.929Z" fill="#371E5B"/>
    <path d="M244.47 125.392C239.793 121.938 235.597 117.876 231.992 113.314C228.383 108.756 225.384 103.747 223.072 98.4122C221.768 95.3832 220.696 92.2595 219.865 89.068C219.831 88.9722 219.761 88.8932 219.671 88.8468C219.58 88.8004 219.476 88.7902 219.378 88.8183C219.28 88.8463 219.197 88.9106 219.145 88.9979C219.093 89.0852 219.076 89.189 219.098 89.2883C220.596 95.0023 222.85 100.491 225.798 105.61C228.75 110.73 232.361 115.441 236.538 119.623C238.882 121.961 241.397 124.121 244.062 126.086C244.478 126.388 244.878 125.694 244.47 125.392Z" fill="#371E5B"/>
    <path d="M247.677 124.127C241.571 114.943 237.049 104.8 234.302 94.119C233.526 91.1076 232.906 88.0554 232.416 84.9869C232.343 84.4809 231.6 84.6931 231.649 85.1991C233.382 96.1512 236.938 106.736 242.169 116.513C243.638 119.233 245.232 121.899 246.951 124.51C247.237 124.959 247.93 124.559 247.677 124.127Z" fill="#371E5B"/>
    <path d="M249.995 124.136C247.389 114.47 246.137 104.489 246.274 94.4788C246.315 91.6878 246.47 88.8967 246.723 86.1139C246.772 85.6079 245.972 85.6079 245.907 86.1139C244.995 96.0924 245.464 106.149 247.302 115.999C247.824 118.807 248.469 121.589 249.212 124.348C249.24 124.452 249.308 124.54 249.402 124.594C249.495 124.647 249.606 124.662 249.71 124.634C249.814 124.605 249.902 124.537 249.956 124.444C250.009 124.35 250.023 124.24 249.995 124.136V124.136Z" fill="#371E5B"/>
    <path d="M252.574 129.554C252.26 132.204 251.156 134.697 249.408 136.712C247.712 138.657 245.627 140.225 243.287 141.314C245.874 150.487 246.037 160.231 248.583 169.421C239.878 169.72 231.192 170.027 222.525 170.343L215.711 170.547L218.159 159.024C216.275 159.369 214.362 159.533 212.447 159.513C209.835 159.513 207.06 158.991 205.102 157.269C205.048 157.228 204.996 157.185 204.947 157.138C203.045 155.359 202.335 152.683 201.854 150.128C199.044 134.915 201.475 119.198 208.75 105.545C209.546 103.925 210.562 102.423 211.769 101.081C212.06 100.776 212.368 100.487 212.692 100.216C215.571 106.853 219.976 112.716 225.549 117.329C231.123 121.942 237.706 125.175 244.764 126.763C245.475 125.861 246.393 125.144 247.441 124.674C248.002 124.427 248.613 124.318 249.225 124.354C249.837 124.391 250.431 124.574 250.958 124.886C252.395 125.849 252.745 127.832 252.574 129.554Z" fill="#F9CFAA"/>
    <path d="M215.736 170.571C215.548 170.571 217.368 162.703 218.184 159.047C224.713 157.897 230.956 154.804 236.652 151.262C231.821 157.603 226.794 164.319 221.563 170.366L215.736 170.571Z" fill="#D8954C"/>
    <path d="M120.922 346.888H118.825C117.523 346.943 116.222 346.755 114.989 346.333C112.353 345.281 110.908 342.416 110.092 339.699C108.67 335.159 108.152 330.385 108.566 325.646C111.692 327.376 114.866 329.065 117.886 330.966C116.992 336.466 118.067 342.104 120.922 346.888V346.888Z" fill="white"/>
    <path d="M139.855 345.044V345.428C133.582 346.391 127.244 346.88 120.897 346.889C118.059 342.092 117.004 336.448 117.919 330.95C120.472 332.499 122.878 334.277 125.108 336.263C127.426 338.352 129.491 340.743 132.029 342.555C134.241 344.187 137.089 345.338 139.855 345.044Z" fill="#466EB6"/>
    <path d="M278.126 344.195C276.091 346.963 273.213 348.996 269.924 349.989C265.778 351.311 261.347 351.312 257.005 351.148C249.598 350.865 242.213 350.151 234.889 349.01C233.428 351.768 231.355 354.217 228.124 354.788C226.149 355.123 224.312 354.478 222.501 353.76C220.444 352.944 218.404 352.076 216.38 351.156C212.3 349.312 208.382 347.215 204.481 345.028C202.515 343.897 200.491 342.87 198.418 341.951C196.345 341.078 194.215 340.319 192.118 339.503C188.613 338.106 185.184 336.529 181.843 334.777L178.66 333.382C177.844 334.263 177.028 335.128 176.212 336.018C172.484 340.179 169.532 344.975 167.496 350.177L167.431 350.365C166.77 352.07 166.158 353.907 164.762 355.082C163.367 356.257 160.877 356.371 159.955 354.796C159.798 354.44 159.61 354.099 159.392 353.776C158.576 352.878 157.189 353.335 156.014 353.49C152.553 353.964 149.215 350.316 149.991 346.913L149.224 346.758C149.189 346.9 149.161 347.045 149.142 347.19H149.003C148.636 348.205 147.9 349.044 146.941 349.539C145.983 350.034 144.872 350.15 143.832 349.862C142.792 349.575 141.899 348.905 141.331 347.988C140.763 347.07 140.562 345.972 140.769 344.913C140.467 344.977 140.162 345.021 139.855 345.044C137.096 345.338 134.281 344.187 131.996 342.555C129.458 340.743 127.393 338.352 125.075 336.263C122.854 334.281 120.458 332.503 117.918 330.95C114.899 329.048 111.724 327.359 108.598 325.629L107.431 324.984C101.311 321.565 95.19 317.639 91.1095 311.984C87.029 306.328 85.2989 298.412 88.4898 292.177C91.0524 287.191 96.2264 284.073 101.474 282.098C112.189 278.083 123.99 277.814 135.342 279.267C146.694 280.719 157.752 283.82 168.9 286.399C173.796 287.542 178.766 288.57 183.72 289.533C186.731 290.113 189.759 290.651 192.779 291.165C214.454 294.887 236.399 297.18 258.311 299.392C258.409 299.751 258.515 300.102 258.629 300.461C260.67 306.989 263.583 313.2 266.496 319.394C270.365 327.669 274.241 335.936 278.126 344.195Z" fill="#371E5B"/>
    <path d="M172.074 324.617C172.603 325.103 173.023 325.695 173.306 326.355C173.457 326.798 173.663 327.22 173.919 327.612C174.735 328.624 176.367 328.428 177.566 328.012C178.766 327.596 180.162 326.992 181.361 327.498C181.571 327.571 181.757 327.698 181.901 327.868C182.045 328.037 182.14 328.242 182.177 328.461C182.167 328.772 182.059 329.072 181.867 329.318C180.931 330.779 179.854 332.146 178.652 333.398C177.836 334.28 177.02 335.145 176.204 336.034C172.474 340.194 169.522 344.99 167.488 350.193L167.422 350.381C166.761 352.087 166.149 353.923 164.754 355.098C163.358 356.273 160.869 356.388 159.947 354.813C159.79 354.456 159.602 354.115 159.384 353.792C158.568 352.895 157.18 353.352 156.005 353.507C152.545 353.98 149.207 350.332 149.982 346.921L149.215 346.774C150.997 337.775 156.169 329.805 163.66 324.511C163.913 324.331 164.166 324.152 164.419 323.956V323.997C165.581 323.23 166.966 322.874 168.354 322.986C169.741 323.099 171.051 323.673 172.074 324.617V324.617Z" fill="#E5ECA5"/>
    <path d="M200.417 313.118C190.477 315.779 180.643 319.043 172.074 324.617C171.056 323.683 169.756 323.115 168.379 323.001C167.002 322.887 165.626 323.235 164.468 323.989V323.948C166.647 322.316 168.9 320.112 167.855 317.762C167.129 316.13 165.048 315.526 163.252 315.664C161.457 315.803 159.71 316.481 157.915 316.481C157.284 316.533 156.655 316.357 156.144 315.983C155.108 315.085 155.605 313.306 154.895 312.123C153.9 310.49 151.419 310.931 149.542 310.441C148.252 309.993 147.073 309.275 146.082 308.336L128.503 293.744C151.794 302.582 175.616 310.939 200.417 313.118Z" fill="#4E3275"/>
    <path d="M152.659 322.274C149.566 323.841 147.445 326.885 145.249 329.448L141.454 333.888L140.442 335.063C140.279 335.259 139.92 335.569 139.675 335.879C139.671 335.838 139.671 335.797 139.675 335.756C140.386 332.286 141.503 328.911 143.005 325.702C144.461 322.432 146.226 319.308 148.277 316.374C149.158 315.101 147.085 313.926 146.204 315.158C142.531 320.461 139.772 326.342 138.043 332.557C137.586 334.189 136.084 338.923 139.308 338.939C140.81 338.939 141.813 337.193 142.67 336.197L146.212 332.059L147.95 329.97C146.336 333.292 145.075 336.774 144.188 340.359C143.821 341.861 146.131 342.497 146.498 340.996C148.003 334.864 150.647 329.07 154.292 323.915C155.042 322.862 153.631 321.809 152.659 322.274Z" fill="#4E3275"/>
    <path d="M256.197 306.304C236.604 305.912 217.029 307.699 197.83 311.633C192.433 312.721 187.077 313.997 181.761 315.46C181.471 315.558 181.228 315.763 181.084 316.034C180.94 316.305 180.905 316.621 180.987 316.916C181.068 317.212 181.26 317.465 181.523 317.624C181.785 317.783 182.098 317.835 182.398 317.77C201.104 312.702 220.316 309.732 239.68 308.915C245.18 308.681 250.686 308.622 256.197 308.736C257.74 308.752 257.74 306.369 256.197 306.304Z" fill="#4E3275"/>
    <path d="M102.502 289.165C98.4053 292.789 94.8345 296.967 91.893 301.578C91.0769 302.884 93.1335 304.084 93.9577 302.794C96.8084 298.359 100.264 294.343 104.224 290.863C105.359 289.867 103.661 288.178 102.502 289.165Z" fill="#4E3275"/>
    <path d="M104.91 297.457C104.683 297.239 104.38 297.116 104.065 297.116C103.75 297.116 103.447 297.239 103.22 297.457C101.12 299.677 99.0257 301.894 96.9365 304.109C96.719 304.338 96.5977 304.641 96.5977 304.957C96.5977 305.273 96.719 305.577 96.9365 305.806C97.1636 306.027 97.4682 306.151 97.7853 306.151C98.1024 306.151 98.4069 306.027 98.634 305.806L104.91 299.155C105.131 298.928 105.255 298.623 105.255 298.306C105.255 297.989 105.131 297.685 104.91 297.457V297.457Z" fill="#4E3275"/>
    <path d="M164.06 337.38C161.713 341.073 159.655 344.942 157.907 348.953C157.759 349.228 157.721 349.549 157.799 349.852C157.878 350.155 158.068 350.416 158.331 350.585C158.606 350.74 158.931 350.782 159.236 350.701C159.541 350.62 159.802 350.423 159.964 350.152C161.721 346.143 163.783 342.274 166.133 338.58C166.958 337.315 164.885 336.083 164.06 337.38Z" fill="#E7FDA8"/>
    <path d="M157.377 341.747C157.073 341.67 156.751 341.711 156.476 341.863C156.202 342.014 155.996 342.265 155.899 342.563C155.818 342.784 155.736 342.996 155.646 343.216L155.597 343.347L155.5 343.575C155.32 343.983 155.124 344.391 154.912 344.799C154.504 345.589 154.046 346.353 153.541 347.084C153.385 347.359 153.344 347.684 153.425 347.989C153.505 348.294 153.702 348.555 153.973 348.717C154.249 348.866 154.572 348.904 154.875 348.824C155.179 348.743 155.44 348.55 155.606 348.284C156.68 346.702 157.552 344.991 158.201 343.192C158.277 342.891 158.233 342.573 158.08 342.303C157.926 342.034 157.674 341.835 157.377 341.747V341.747Z" fill="#E7FDA8"/>
    <path d="M249.815 128.827C249.723 128.614 249.585 128.424 249.411 128.27C249.237 128.116 249.031 128.003 248.808 127.938C248.585 127.874 248.35 127.859 248.121 127.896C247.892 127.932 247.673 128.019 247.481 128.15C246.554 128.74 245.782 129.543 245.229 130.492C244.614 131.45 244.195 132.521 243.997 133.642C243.85 134.532 243.833 136.246 245.18 136.091C246.355 135.927 247.155 134.556 247.432 133.528C247.449 133.43 247.429 133.33 247.376 133.246C247.323 133.162 247.241 133.101 247.145 133.074C247.049 133.048 246.947 133.058 246.859 133.103C246.77 133.147 246.701 133.223 246.665 133.316C246.534 133.805 246.3 134.261 245.98 134.654C245.8 134.866 245.229 135.511 244.886 135.266C244.698 135.144 244.715 134.728 244.715 134.54C244.719 134.236 244.752 133.932 244.813 133.634C244.914 133.155 245.056 132.686 245.237 132.23C245.616 131.296 246.17 130.443 246.869 129.717C247.19 129.326 247.59 129.009 248.044 128.787C248.371 128.656 248.901 128.664 249.048 129.064C249.195 129.464 249.987 129.317 249.815 128.827Z" fill="#D8954C"/>
    <path d="M232.808 138.719C232.81 139.838 232.479 140.932 231.858 141.864C231.238 142.795 230.354 143.521 229.321 143.95C228.287 144.379 227.149 144.492 226.051 144.274C224.953 144.056 223.945 143.517 223.154 142.726C222.362 141.934 221.823 140.926 221.605 139.828C221.387 138.73 221.5 137.593 221.929 136.559C222.358 135.525 223.084 134.642 224.016 134.021C224.947 133.4 226.042 133.07 227.161 133.071C228.659 133.071 230.095 133.666 231.154 134.725C232.213 135.784 232.808 137.221 232.808 138.719V138.719Z" fill="#F4B1A4"/>
    <path d="M218.502 142.816C216.161 145.899 212.691 147.927 208.856 148.455C208.358 148.52 208.35 149.32 208.856 149.271C210.892 148.999 212.854 148.325 214.628 147.288C216.402 146.252 217.951 144.873 219.188 143.232C219.498 142.808 218.804 142.408 218.502 142.816Z" fill="#371E5B"/>
    <path d="M204.824 127.342C206.091 127.342 207.118 126.316 207.118 125.049C207.118 123.783 206.091 122.756 204.824 122.756C203.558 122.756 202.531 123.783 202.531 125.049C202.531 126.316 203.558 127.342 204.824 127.342Z" fill="#371E5B"/>
    <path d="M223.798 127.342C225.065 127.342 226.091 126.316 226.091 125.049C226.091 123.783 225.065 122.756 223.798 122.756C222.532 122.756 221.505 123.783 221.505 125.049C221.505 126.316 222.532 127.342 223.798 127.342Z" fill="#371E5B"/>
    <path d="M207.199 118.047C207.106 117.746 206.9 117.493 206.625 117.341C206.349 117.189 206.026 117.149 205.722 117.231C204.22 117.81 202.727 118.423 201.249 119.051C200.979 119.21 200.781 119.467 200.695 119.769C200.615 120.081 200.659 120.411 200.817 120.691C200.974 120.963 201.232 121.162 201.535 121.246C201.847 121.313 202.173 121.269 202.457 121.124L202.759 120.993L203.273 120.773L204.261 120.373C204.946 120.087 205.64 119.818 206.326 119.557C206.624 119.465 206.879 119.268 207.044 119.002C207.134 118.862 207.194 118.705 207.22 118.541C207.247 118.376 207.24 118.208 207.199 118.047V118.047Z" fill="#371E5B"/>
    <path d="M226.565 117.271C224.933 117.239 223.301 117.171 221.668 117.067C221.351 117.07 221.047 117.197 220.822 117.421C220.598 117.646 220.471 117.95 220.469 118.267C220.477 118.583 220.606 118.883 220.829 119.106C221.052 119.329 221.353 119.458 221.668 119.467C223.301 119.57 224.933 119.638 226.565 119.671C226.723 119.671 226.879 119.64 227.024 119.579C227.17 119.519 227.302 119.431 227.413 119.319C227.525 119.208 227.613 119.076 227.673 118.93C227.734 118.785 227.765 118.629 227.765 118.471C227.765 118.314 227.734 118.158 227.673 118.012C227.613 117.866 227.525 117.734 227.413 117.623C227.302 117.511 227.17 117.423 227.024 117.363C226.879 117.302 226.723 117.271 226.565 117.271V117.271Z" fill="#371E5B"/>
    <path d="M256.222 120.708C255.159 120.696 254.098 120.795 253.055 121.001L249.595 121.409C245.425 121.924 241.271 122.536 237.158 123.393C237.181 121.557 236.77 119.743 235.957 118.097C235.144 116.452 233.953 115.023 232.481 113.926C228.85 111.38 223.243 110.923 219.302 113.175C219.155 113.164 219.009 113.202 218.885 113.281C218.059 113.791 217.348 114.466 216.796 115.264L216.739 115.338C216.69 115.397 216.648 115.463 216.617 115.534C215.901 116.654 215.351 117.871 214.984 119.149C214.626 120.356 214.42 121.604 214.372 122.862C214.332 122.857 214.291 122.857 214.25 122.862C213.252 122.805 212.252 122.805 211.255 122.862C211.217 121.149 210.807 119.465 210.053 117.926C209.299 116.387 208.219 115.03 206.889 113.95C203.494 111.404 198.254 110.939 194.566 113.191C194.427 113.186 194.291 113.223 194.174 113.297C193.397 113.821 192.736 114.499 192.232 115.289C192.206 115.309 192.184 115.334 192.166 115.362C192.12 115.421 192.084 115.487 192.06 115.558C191.394 116.687 190.891 117.904 190.567 119.173C189.867 121.538 189.797 124.045 190.363 126.445C190.966 128.554 192.234 130.413 193.978 131.745C195.721 133.077 197.848 133.811 200.042 133.839C202.39 133.957 204.712 133.303 206.653 131.977C208.594 130.65 210.047 128.724 210.79 126.494C210.996 125.824 211.133 125.135 211.198 124.437C212.214 124.376 213.233 124.376 214.25 124.437C214.304 124.446 214.359 124.446 214.413 124.437C214.472 125.121 214.592 125.799 214.772 126.461C216.062 131.031 220.542 133.692 225.12 133.806C230.017 133.977 235.02 131.292 236.619 126.461C236.771 125.986 236.891 125.5 236.978 125.008C240.561 124.192 244.192 123.654 247.832 123.18C249.617 122.952 251.409 122.737 253.21 122.536C254.061 122.376 254.924 122.28 255.789 122.25C256.32 122.25 256.295 122.43 256.401 122.944C256.496 123.43 256.543 123.925 256.54 124.421C256.54 124.637 256.626 124.845 256.779 124.998C256.932 125.151 257.14 125.237 257.356 125.237C257.572 125.237 257.78 125.151 257.933 124.998C258.086 124.845 258.172 124.637 258.172 124.421C258.148 123.017 258.05 120.879 256.222 120.708ZM209.704 124.331C208.888 133.145 195.945 135.112 192.321 127.44C191.417 125.309 191.214 122.946 191.742 120.691C192.005 119.161 192.541 117.69 193.325 116.35C196.026 112.881 200.939 112.694 204.612 114.399C208.284 116.105 210.137 120.283 209.737 124.315L209.704 124.331ZM235.46 124.331C234.571 133.145 220.77 135.104 216.87 127.432C215.905 125.318 215.686 122.938 216.249 120.683C216.535 119.145 217.108 117.675 217.939 116.35C220.828 112.881 226.1 112.685 230.009 114.399C233.918 116.113 235.901 120.275 235.493 124.315L235.46 124.331Z" fill="#466EB6"/>
    <path d="M211.434 140.84C210.675 140.742 209.925 140.62 209.182 140.448C208.839 140.367 208.496 140.285 208.162 140.187C207.988 140.159 207.818 140.11 207.656 140.04C207.444 139.918 207.419 139.82 207.444 139.567C207.51 139.184 207.608 138.807 207.738 138.441C207.827 138.09 207.925 137.747 208.023 137.396C208.219 136.67 208.423 135.943 208.619 135.217C209.43 132.317 210.267 129.426 211.132 126.542C211.279 126.052 210.529 125.783 210.382 126.273C209.375 129.602 208.415 132.938 207.501 136.278C207.272 137.094 207.052 137.91 206.832 138.726C206.685 139.273 206.44 139.959 206.832 140.448C207.223 140.938 208.195 141.028 208.79 141.167C209.606 141.362 210.488 141.509 211.345 141.624C211.891 141.705 211.94 140.905 211.434 140.84Z" fill="#D8954C"/>
    <path d="M204.669 262.463C203.94 262.24 203.268 261.863 202.697 261.358C202.126 260.853 201.671 260.231 201.361 259.535C201.052 258.839 200.895 258.084 200.903 257.322C200.91 256.56 201.081 255.808 201.405 255.118C201.829 254.302 202.474 253.584 202.449 252.67C202.365 252.065 202.107 251.498 201.707 251.037C200.074 248.76 198.001 246.761 196.81 244.231C195.618 241.701 195.504 238.314 197.553 236.405C198.369 235.678 199.413 235.164 199.772 234.161C200.213 232.928 199.373 231.663 198.63 230.586C193.496 223.051 191.513 213.807 193.105 204.83L217.857 207.923C218.808 207.953 219.73 208.259 220.509 208.804C221.066 209.422 221.538 210.111 221.913 210.853C223.945 213.864 229.388 213.301 230.768 209.947C232.057 211.669 233.95 213.595 235.999 212.942C236.888 212.665 237.574 211.93 238.447 211.661C238.712 211.58 238.986 211.536 239.263 211.53C245.503 227.996 249.965 245.081 252.574 262.495C252.927 264.78 253.24 267.068 253.512 269.359C254.72 279.209 255.348 289.198 258.066 298.738C258.123 298.95 258.188 299.179 258.262 299.391C236.35 297.179 214.405 294.886 192.73 291.165C196.11 286.075 197.986 280.135 198.14 274.027C198.189 271.497 197.985 268.796 199.283 266.617C200.474 264.634 202.629 263.507 204.669 262.463Z" fill="white"/>
    <path d="M245.882 261.835C246.078 262.757 245.319 263.598 244.544 264.144C241.973 265.94 238.733 266.397 235.852 267.645C235.68 267.691 235.519 267.771 235.379 267.88C235.239 267.989 235.122 268.126 235.036 268.282C234.857 268.772 235.289 269.269 235.697 269.604C238.08 271.53 241.312 272.909 242.226 275.847C233.516 276.94 224.714 277.088 215.972 276.288C212.504 275.978 208.758 275.374 206.351 272.86C206.097 272.647 205.896 272.377 205.764 272.072C205.632 271.768 205.573 271.437 205.592 271.106C205.755 270.29 206.669 269.865 207.469 269.596C218.313 265.888 229.345 262.758 240.521 260.219C241.429 260.17 242.34 260.186 243.246 260.268C244.34 260.366 245.654 260.758 245.882 261.835Z" fill="#CEEAE8"/>
    <path d="M147.485 241.188C147.426 240.937 147.321 240.699 147.175 240.486L147.012 240.355C147.219 240.107 147.375 239.821 147.47 239.512C147.566 239.203 147.6 238.879 147.569 238.557C147.539 238.236 147.445 237.923 147.294 237.638C147.142 237.353 146.935 237.1 146.686 236.895L147.298 236.683C152.929 237.37 158.513 238.397 164.019 239.76C164.395 238.511 164.191 237.164 164.272 235.867C164.354 234.569 164.852 233.125 166.051 232.602C168.19 231.705 170.132 234.316 172.458 234.667L182.839 202.986C185.364 203.77 187.966 204.284 190.6 204.521L193.048 204.839C191.456 213.816 193.439 223.06 198.573 230.595C199.316 231.672 200.156 232.937 199.715 234.169C199.356 235.173 198.279 235.687 197.496 236.414C195.447 238.323 195.545 241.702 196.753 244.24C197.961 246.778 200.017 248.769 201.65 251.046C202.05 251.507 202.308 252.074 202.392 252.678C202.392 253.576 201.772 254.311 201.348 255.127C201.024 255.817 200.853 256.568 200.846 257.33C200.838 258.093 200.995 258.847 201.304 259.544C201.614 260.24 202.069 260.862 202.64 261.367C203.211 261.872 203.883 262.249 204.612 262.471C202.572 263.516 200.417 264.642 199.258 266.617C197.961 268.796 198.165 271.514 198.116 274.027C197.961 280.135 196.086 286.076 192.705 291.165C189.686 290.643 186.658 290.096 183.647 289.533C184.778 281.487 185.91 273.437 187.041 265.385C187.046 265.342 187.046 265.298 187.041 265.254C184.082 268.089 181.008 270.787 177.82 273.35C177.05 274.221 176.003 274.799 174.856 274.985C173.709 275.171 172.533 274.954 171.528 274.37C159.296 269.805 148.049 262.944 138.394 254.155L138.794 254.09C142.475 253.437 146.139 251.373 147.567 247.912C147.901 247.209 148.015 246.421 147.893 245.652C147.828 245.333 147.688 245.035 147.485 244.781C147.283 244.527 147.022 244.325 146.726 244.191L146.637 244.15C146.997 243.755 147.261 243.282 147.408 242.768C147.555 242.255 147.582 241.714 147.485 241.188Z" fill="#E7FDA8"/>
    <path d="M288.817 317.419C284.965 326.87 279.987 336.149 279.13 346.317L278.126 344.195C274.252 335.931 270.37 327.667 266.48 319.402C263.567 313.208 260.653 306.981 258.613 300.461C258.499 300.11 258.393 299.759 258.295 299.4C258.221 299.188 258.156 298.959 258.099 298.747C255.381 289.199 254.753 279.21 253.545 269.367C253.268 267.072 252.955 264.784 252.607 262.504C249.981 245.094 245.503 228.014 239.247 211.555C238.97 211.561 238.696 211.605 238.431 211.686C237.542 211.955 236.856 212.69 235.983 212.967C233.934 213.62 232.041 211.694 230.752 209.972C229.372 213.334 223.929 213.889 221.897 210.878C221.522 210.136 221.05 209.447 220.493 208.83C219.714 208.284 218.792 207.978 217.841 207.948L193.089 204.855L190.641 204.537C188.007 204.3 185.405 203.786 182.88 203.003C181.981 202.697 181.112 202.309 180.284 201.844C175.935 199.395 173.258 194.842 170.671 190.557C160.743 174.143 149.147 158.798 136.068 144.766L135.856 144.962C134.394 145.804 132.728 146.225 131.041 146.178C130.606 146.209 130.175 146.075 129.833 145.803C129.662 145.571 129.546 145.304 129.496 145.021C129.445 144.738 129.46 144.447 129.54 144.17C129.933 141.764 130.828 139.467 132.167 137.429C130.885 138.167 129.514 138.738 128.087 139.127C127.45 139.298 126.618 139.388 126.234 138.841C126.122 138.611 126.063 138.359 126.063 138.103C126.063 137.847 126.122 137.594 126.234 137.364C127.475 133.855 129.923 130.909 132.445 128.159C132.551 128.052 132.649 127.93 132.763 127.816C135.497 124.862 138.353 122.013 141.357 119.32C142.393 118.382 143.446 117.451 144.515 116.554L144.801 116.88C145.187 116.448 145.699 116.146 146.264 116.016C146.829 115.886 147.421 115.934 147.958 116.154C148.495 116.374 148.95 116.755 149.262 117.245C149.573 117.734 149.725 118.308 149.697 118.888C149.624 119.924 149.175 121.336 150.17 121.728C150.546 121.818 150.937 121.818 151.313 121.728C152.733 121.565 154.063 122.544 154.863 123.744C155.56 124.995 156.181 126.286 156.724 127.612C157.934 129.688 159.453 131.567 161.229 133.186C172.795 144.845 184.003 156.85 194.852 169.2C195.264 168.156 195.517 167.055 195.602 165.936C195.831 164.858 196.419 163.691 197.504 163.43C198.589 163.169 199.805 164.124 200.442 165.168C201.078 166.213 201.495 167.421 202.433 168.204C202.806 167.665 203.312 167.232 203.902 166.948C204.42 166.681 204.989 166.529 205.571 166.504C206.153 166.478 206.734 166.58 207.273 166.801C208.018 167.14 208.644 167.696 209.069 168.396C209.494 169.096 209.698 169.908 209.656 170.726L215.736 170.514L221.587 170.31L248.592 169.363L253.178 169.2C257.079 169.069 261.053 168.931 264.84 169.91C268.372 170.873 271.607 172.705 274.25 175.239C277.771 178.601 280.401 182.785 281.905 187.415C284.581 195.478 284.198 204.243 282.916 212.641C281.635 221.038 279.456 229.314 278.624 237.768C278.487 238.429 278.558 239.116 278.828 239.735C279.235 240.34 279.832 240.791 280.525 241.016C283.569 242.355 287.625 244.403 286.785 247.627C286.181 249.936 283.047 251.65 283.912 253.87C284.279 254.792 285.242 255.314 285.879 256.065C288.164 258.758 285.724 262.692 284.859 266.111C282.965 273.595 289.217 280.401 291.91 287.632C295.484 297.253 292.677 307.977 288.817 317.419Z" fill="#E7FDA8"/>
    <path d="M240.888 211.735L265.926 216.386C259.856 231.24 255.38 246.697 252.574 262.496C249.949 245.085 245.47 228.005 239.215 211.547C239.777 211.554 240.338 211.617 240.888 211.735V211.735Z" fill="#B5D260"/>
    <path d="M208.97 172.048C208.885 171.88 208.744 171.747 208.572 171.671C208.4 171.594 208.207 171.58 208.025 171.63C207.844 171.68 207.685 171.791 207.576 171.945C207.467 172.098 207.415 172.285 207.427 172.473C207.928 174.199 208.275 175.966 208.464 177.753C208.554 178.667 208.554 179.589 208.464 180.503C208.415 180.968 208.325 182.486 207.762 182.617C207.199 182.747 206.473 181.801 206.187 181.368C205.812 180.816 205.482 180.235 205.2 179.63C204.653 178.375 203.906 177.218 202.988 176.202C202.873 176.099 202.732 176.03 202.58 176.003C202.428 175.977 202.271 175.994 202.128 176.053C201.986 176.112 201.863 176.21 201.774 176.336C201.684 176.462 201.633 176.611 201.625 176.765C201.646 179.675 201.16 182.567 200.189 185.31C200.123 185.506 200.034 185.702 199.968 185.906C199.936 185.972 199.898 186.034 199.854 186.093C199.643 185.75 199.481 185.38 199.373 184.992C197.935 181.426 197.203 177.615 197.218 173.77C197.218 173.554 197.132 173.346 196.979 173.193C196.826 173.04 196.618 172.954 196.402 172.954C196.186 172.954 195.978 173.04 195.825 173.193C195.672 173.346 195.586 173.554 195.586 173.77C195.584 176.179 195.858 178.581 196.402 180.927C196.671 182.107 197.015 183.268 197.43 184.404C197.765 185.334 198.083 186.607 198.818 187.309C198.97 187.458 199.152 187.573 199.352 187.645C199.551 187.718 199.765 187.747 199.977 187.73C200.189 187.713 200.395 187.65 200.58 187.547C200.766 187.443 200.928 187.301 201.054 187.13C201.671 186.155 202.087 185.068 202.278 183.931C202.7 182.344 202.973 180.721 203.094 179.083C203.559 179.899 203.951 180.83 204.441 181.654C205.208 182.927 206.84 184.918 208.521 184.029C208.874 183.796 209.171 183.488 209.39 183.127C209.608 182.766 209.744 182.36 209.786 181.939C210.016 180.867 210.118 179.771 210.088 178.675C209.974 176.43 209.599 174.206 208.97 172.048V172.048Z" fill="#B5D260"/>
    <path d="M235.754 205.108L234.889 203.362C234.705 202.919 234.472 202.497 234.195 202.105C233.879 201.758 233.443 201.544 232.975 201.506C232.506 201.468 232.041 201.609 231.674 201.901C231.259 202.207 230.896 202.576 230.596 202.995C230.417 203.215 230.066 203.737 229.731 203.745C229.397 203.754 229.087 202.995 228.915 202.717C228.621 202.154 228.344 201.591 228.05 201.02C227.618 200.155 227.234 198.89 226.165 198.629C225.096 198.367 224.443 199.232 224.01 200C222.87 202.04 222.044 204.241 221.562 206.528C221.342 207.524 222.876 207.957 223.105 206.953C223.527 204.997 224.208 203.106 225.128 201.33C225.274 200.961 225.484 200.621 225.749 200.326C225.887 200.212 225.806 200.155 225.928 200.375C226.051 200.595 226.173 200.832 226.287 201.061C226.761 201.999 227.218 202.938 227.707 203.86C227.851 204.223 228.079 204.546 228.373 204.803C228.667 205.06 229.018 205.243 229.397 205.337C229.79 205.372 230.187 205.308 230.549 205.15C230.912 204.991 231.228 204.744 231.47 204.431C231.763 204.105 232.539 202.799 233.012 203.24C233.262 203.599 233.46 203.992 233.6 204.407L234.358 205.941C234.832 206.814 236.252 206.006 235.754 205.108Z" fill="#B5D260"/>
    <path d="M275.049 206.593L267.117 214.395C266.382 215.114 267.509 216.248 268.243 215.522L276.175 207.728C276.918 207.002 275.784 205.875 275.049 206.593Z" fill="#B5D260"/>
    <path d="M276.918 213.75C274.217 215.362 271.436 216.836 268.586 218.165C268.405 218.274 268.273 218.449 268.218 218.653C268.164 218.857 268.19 219.074 268.292 219.259C268.402 219.438 268.577 219.568 268.781 219.621C268.985 219.675 269.202 219.647 269.386 219.544C272.238 218.206 275.019 216.722 277.718 215.097C277.838 214.968 277.913 214.803 277.932 214.628C277.951 214.452 277.912 214.276 277.822 214.124C277.732 213.972 277.595 213.854 277.432 213.787C277.269 213.719 277.089 213.706 276.918 213.75V213.75Z" fill="#B5D260"/>
    <path d="M277.8 258.587C276.154 259.035 274.472 259.338 272.773 259.493L271.508 259.574C271.23 259.574 270.896 259.574 270.594 259.574H270.634C270.945 259.313 271.263 259.06 271.581 258.807C272.845 257.829 274.164 256.925 275.531 256.098C276.625 255.42 278.428 254.784 278.379 253.233C278.379 253.017 278.293 252.809 278.14 252.656C277.987 252.503 277.78 252.417 277.563 252.417C275.8 252.572 274.021 252.67 272.25 252.686C271.361 252.686 270.471 252.686 269.582 252.686L268.251 252.637C268.06 252.635 267.869 252.616 267.68 252.58V252.58H267.762C268.447 252.205 269.084 251.634 269.745 251.201C270.406 250.769 271.124 250.344 271.826 249.944C273.287 249.12 274.794 248.379 276.339 247.725C277.277 247.341 276.861 245.79 275.915 246.19C273.975 246.992 272.093 247.927 270.284 248.99C269.378 249.528 268.496 250.099 267.631 250.703C266.938 251.193 265.999 251.732 265.999 252.686C266.028 253.068 266.19 253.428 266.457 253.703C266.724 253.977 267.079 254.149 267.46 254.188C268.528 254.334 269.606 254.386 270.683 254.343C272.316 254.343 273.972 254.3 275.653 254.213L274.837 254.694C274.078 255.151 273.328 255.641 272.593 256.147C271.859 256.653 271.034 257.273 270.275 257.869C269.68 258.342 268.79 258.872 268.553 259.648C267.901 261.77 271.312 261.28 272.405 261.206C274.377 261.062 276.331 260.731 278.24 260.219C278.457 260.161 278.641 260.019 278.753 259.824C278.865 259.63 278.895 259.399 278.836 259.183C278.778 258.966 278.636 258.782 278.441 258.67C278.247 258.558 278.016 258.528 277.8 258.587Z" fill="#B5D260"/>
    <path d="M147.029 125.016C145.25 124.763 143.601 125.832 142.132 126.697C140.557 127.625 139.047 128.659 137.611 129.79C136.215 130.868 134.869 132.01 133.53 133.169C132.804 133.806 130.266 135.462 131.898 136.491C132.029 136.556 132.175 136.584 132.321 136.574C132.467 136.563 132.607 136.514 132.727 136.43C132.847 136.347 132.943 136.233 133.004 136.1C133.065 135.967 133.089 135.82 133.073 135.674L133.163 135.568L133.588 135.193L134.404 134.45L135.897 133.153C136.958 132.255 138.027 131.374 139.162 130.541C140.296 129.709 141.373 128.958 142.532 128.256C143.095 127.922 143.666 127.595 144.246 127.293L144.621 127.097C141.014 131.553 137.867 136.363 135.228 141.452C134.755 142.358 136.134 143.166 136.607 142.269C139.575 136.576 143.19 131.244 147.38 126.379C147.722 125.947 147.673 125.131 147.029 125.016Z" fill="#B5D260"/>
    <path d="M124.276 98.428C124.561 92.8704 125.247 87.2312 127.793 82.3102C128.658 80.678 129.85 78.9723 131.629 78.3766C131.751 78.3367 131.882 78.3367 132.004 78.3766C132.339 78.4664 132.347 78.9234 132.298 79.258C131.927 82.6339 132.025 86.0451 132.592 89.3939C134.003 99.742 136.55 110.041 141.365 119.312C138.361 122.005 135.505 124.853 132.771 127.807C129.498 126.329 126.128 125.075 122.684 124.053C119.792 123.126 116.796 122.561 113.764 122.372C111.347 122.224 108.925 122.559 106.64 123.36C103.849 124.38 101.392 126.208 98.8053 127.701C97.168 128.711 95.3717 129.437 93.4925 129.848C93.2544 129.922 93.0035 129.948 92.7552 129.922C92.5069 129.897 92.2664 129.822 92.0481 129.701C91.824 129.501 91.6624 129.241 91.5827 128.951C91.5031 128.661 91.5088 128.355 91.5992 128.069C97.7121 123.077 104.268 118.655 111.185 114.856V114.725C106.135 115.602 101.219 117.13 96.5611 119.271C95.4022 119.81 94.2597 120.389 93.1335 120.993C90.4322 122.454 87.8207 124.151 84.9725 125.188C84.2543 125.441 83.275 125.571 82.8915 124.918C82.8153 124.787 82.7732 124.638 82.769 124.486C86.2538 121.001 90.7097 118.626 95.1819 116.554C101.06 113.831 107.126 111.532 113.332 109.674C108.349 109.789 103.38 110.228 98.4544 110.988C95.7858 111.396 93.1253 111.91 90.4893 112.498C89.1483 112.937 87.7142 113.01 86.3354 112.71C86.053 112.624 85.7992 112.463 85.6009 112.245C85.0949 111.592 85.6009 110.669 86.1722 110.066C88.2335 108.091 90.6587 106.536 93.313 105.487C103.066 101.11 113.59 98.7109 124.276 98.428V98.428Z" fill="#F9CFAA"/>
    <path d="M106.64 123.319C108.925 122.518 111.347 122.183 113.764 122.331C111.236 124.03 108.53 125.448 105.693 126.558C103.498 127.424 101.123 128.109 98.8135 127.668C101.392 126.167 103.849 124.314 106.64 123.319Z" fill="#D8954C"/>
    <path d="M111.21 114.718V114.848C104.293 118.647 97.737 123.07 91.624 128.061C91.6638 127.828 91.7211 127.599 91.7954 127.375C92.7775 124.353 94.429 121.591 96.6267 119.296V119.296C101.27 117.147 106.172 115.608 111.21 114.718V114.718Z" fill="#D8954C"/>
    <path d="M98.4383 110.98C103.364 110.22 108.333 109.782 113.316 109.666C107.11 111.524 101.044 113.823 95.1657 116.546C90.6935 118.619 86.2377 120.993 82.7529 124.478C82.7605 124.079 82.8761 123.69 83.0875 123.352C84.129 121.563 85.4423 119.947 86.9803 118.561C90.3336 115.392 94.2102 112.827 98.4383 110.98V110.98Z" fill="#D8954C"/>
    <path d="M226.092 354.347C226.532 355.661 226.908 356.991 227.193 358.305C227.56 359.557 227.665 360.871 227.503 362.165C227.201 363.512 226.529 364.748 225.561 365.732C223.999 367.357 222.186 368.721 220.191 369.771C217.286 371.392 214.264 372.791 211.149 373.958C203.657 376.855 195.488 378.969 187.637 377.263C184.984 376.826 182.532 375.577 180.619 373.689C179.45 372.264 178.546 370.642 177.95 368.898C176.209 364.403 175.057 359.701 174.522 354.91C174.663 354.294 174.882 353.699 175.175 353.139C175.548 352.398 176.035 351.721 176.62 351.132C178.668 349.1 181.516 348.112 184.307 347.28C185.491 346.929 186.682 346.586 187.874 346.268C194.81 344.321 201.957 343.224 209.158 343.004C210.961 342.945 212.766 343.046 214.552 343.306C216.273 343.561 217.933 344.131 219.449 344.987C222.827 347.011 224.827 350.552 226.092 354.347Z" fill="white"/>
    <path d="M192.632 339.527C192.667 339.433 192.697 339.338 192.722 339.241C193.064 338.025 193.538 336.474 194.762 336.311C195.227 336.285 195.692 336.372 196.117 336.564L214.552 343.33C212.766 343.07 210.961 342.969 209.158 343.028C201.957 343.249 194.81 344.345 187.874 346.292C190.141 344.603 191.809 342.232 192.632 339.527V339.527Z" fill="#466EB6"/>
    <path d="M178.66 333.39L192.632 339.527C191.804 342.223 190.137 344.585 187.874 346.268C186.683 346.586 185.491 346.929 184.308 347.28C181.533 348.096 178.669 349.099 176.62 351.132C176.036 351.72 175.548 352.398 175.176 353.139C172.602 352.171 170.045 351.186 167.504 350.185C169.539 344.981 172.491 340.186 176.22 336.026C177.02 335.136 177.852 334.271 178.66 333.39Z" fill="#F9CFAA"/>
    <path d="M188.29 375.427C185.026 367.109 182.053 358.676 179.37 350.128C179.068 349.149 177.518 349.565 177.828 350.553C180.488 359.089 183.462 367.522 186.748 375.852C187.115 376.798 188.666 376.39 188.29 375.427Z" fill="#BCDDDB"/>
    <path d="M196.109 375.476C193.269 365.835 190.529 356.167 187.891 346.472C187.806 346.304 187.665 346.171 187.493 346.094C187.321 346.018 187.127 346.004 186.946 346.054C186.764 346.104 186.605 346.215 186.497 346.368C186.388 346.522 186.335 346.709 186.348 346.897C188.992 356.592 191.732 366.262 194.566 375.909C194.651 376.078 194.793 376.212 194.966 376.288C195.139 376.365 195.333 376.379 195.516 376.328C195.698 376.277 195.857 376.164 195.965 376.008C196.073 375.853 196.124 375.665 196.109 375.476V375.476Z" fill="#BCDDDB"/>
    <path d="M202.963 375.027C200.787 364.891 198.453 354.79 195.961 344.725C195.876 344.557 195.736 344.424 195.564 344.347C195.391 344.271 195.198 344.257 195.017 344.307C194.835 344.357 194.676 344.468 194.567 344.621C194.458 344.775 194.406 344.962 194.419 345.149C196.9 355.22 199.234 365.321 201.421 375.451C201.641 376.488 203.184 376.031 202.963 375.027Z" fill="#BCDDDB"/>
    <path d="M206.057 343.967C205.869 342.955 204.327 343.387 204.514 344.391L209.778 372.75C209.966 373.762 211.5 373.338 211.312 372.326C209.544 362.875 207.792 353.422 206.057 343.967Z" fill="#BCDDDB"/>
    <path d="M219.261 368.041C217.46 359.799 215.471 351.597 213.295 343.436C213.206 343.279 213.067 343.156 212.901 343.086C212.734 343.016 212.549 343.003 212.374 343.05C212.2 343.097 212.046 343.2 211.936 343.344C211.827 343.488 211.768 343.664 211.769 343.844C213.945 352.005 215.931 360.207 217.727 368.45C217.939 369.47 219.473 369.045 219.261 368.041Z" fill="#BCDDDB"/>
    <path d="M226.116 364.296C224.239 358.105 222.286 351.932 220.257 345.779C219.938 344.808 218.396 345.224 218.722 346.203C220.746 352.351 222.697 358.523 224.574 364.72C224.876 365.7 226.459 365.283 226.116 364.296Z" fill="#BCDDDB"/>
    <path d="M133.008 220.614L141.83 263.948C142 264.799 142.46 265.564 143.131 266.113C143.802 266.662 144.643 266.961 145.51 266.96H199.854C200.4 266.96 200.939 266.841 201.434 266.612C201.929 266.383 202.369 266.048 202.721 265.632C203.074 265.216 203.332 264.727 203.476 264.201C203.621 263.675 203.649 263.124 203.559 262.585L196.402 219.251C196.257 218.371 195.804 217.571 195.124 216.994C194.444 216.417 193.581 216.1 192.689 216.101H136.688C136.131 216.101 135.581 216.226 135.078 216.466C134.575 216.705 134.131 217.053 133.779 217.485C133.427 217.917 133.175 218.422 133.041 218.963C132.908 219.504 132.897 220.068 133.008 220.614V220.614Z" fill="#193973"/>
    <path d="M131.482 220.614L140.296 263.948C140.467 264.798 140.927 265.562 141.598 266.111C142.269 266.66 143.109 266.96 143.976 266.96H198.32C198.866 266.96 199.405 266.841 199.901 266.612C200.396 266.383 200.836 266.048 201.189 265.632C201.543 265.216 201.801 264.728 201.947 264.202C202.093 263.676 202.122 263.124 202.033 262.585L194.868 219.251C194.723 218.372 194.271 217.573 193.593 216.997C192.914 216.42 192.053 216.102 191.163 216.101H135.163C134.605 216.101 134.055 216.226 133.552 216.466C133.049 216.705 132.605 217.053 132.253 217.485C131.901 217.917 131.649 218.422 131.516 218.963C131.382 219.504 131.371 220.068 131.482 220.614V220.614Z" fill="#466EB6"/>
    <path d="M138.459 254.155C137.032 254.46 135.546 254.312 134.207 253.731C133.985 253.623 133.772 253.498 133.571 253.355C138.759 251.618 143.345 248.439 146.792 244.19C147.088 244.324 147.348 244.527 147.551 244.781C147.754 245.034 147.893 245.333 147.959 245.651C148.08 246.42 147.966 247.208 147.632 247.912C146.22 251.372 142.54 253.437 138.859 254.09L138.459 254.155Z" fill="#F9CFAA"/>
    <path d="M147.559 238.495C147.621 239.162 147.426 239.828 147.012 240.355C146.831 240.589 146.626 240.802 146.4 240.992C145.618 241.557 144.734 241.965 143.797 242.192C139.702 243.425 135.439 244.011 131.164 243.93C129.884 243.966 128.611 243.735 127.426 243.253H127.352C126.476 242.808 125.75 242.115 125.263 241.261C128.288 241.734 131.381 241.511 134.307 240.608C137.233 239.706 139.915 238.149 142.148 236.055C142.708 235.9 143.232 235.636 143.691 235.279C144.149 235.443 144.599 235.631 145.037 235.842C145.631 236.11 146.181 236.465 146.669 236.895C147.147 237.305 147.463 237.872 147.559 238.495V238.495Z" fill="#F9CFAA"/>
    <path d="M146.702 244.15C145.786 245.103 144.643 245.807 143.381 246.198C140.879 247.135 138.29 247.819 135.652 248.239C134.392 248.514 133.09 248.55 131.817 248.345C131.459 248.267 131.109 248.155 130.772 248.01C134.355 246.729 137.937 245.423 141.487 244.085C143.607 243.391 145.624 242.417 147.486 241.188C147.59 241.706 147.575 242.242 147.441 242.755C147.306 243.267 147.056 243.741 146.71 244.142L146.702 244.15Z" fill="#F9CFAA"/>
    <path d="M130.315 247.782C129.499 247.332 128.8 246.696 128.274 245.926C127.748 245.157 127.41 244.274 127.287 243.35L127.352 243.228H127.426C128.611 243.711 129.884 243.942 131.164 243.905C135.439 243.987 139.702 243.4 143.797 242.167C144.731 241.955 145.615 241.564 146.4 241.016C146.626 240.827 146.831 240.613 147.012 240.38L147.175 240.51C147.321 240.723 147.426 240.961 147.485 241.212C145.624 242.441 143.607 243.416 141.487 244.109C137.937 245.448 134.354 246.754 130.772 248.035L130.315 247.782Z" fill="#D8954C"/>
    <path d="M146.702 244.15L146.792 244.191C143.345 248.44 138.759 251.619 133.571 253.356C131.939 252.205 131.049 250.149 130.421 248.133L130.772 248.011C131.1 248.159 131.442 248.277 131.792 248.361C133.066 248.567 134.367 248.531 135.628 248.255C138.265 247.835 140.855 247.152 143.356 246.215C144.629 245.823 145.781 245.112 146.702 244.15Z" fill="#D8954C"/>
    <path d="M143.707 235.303C143.236 235.639 142.716 235.9 142.165 236.078L141.789 236.201C137.464 237.367 133.008 237.979 128.528 238.021C127.208 238.088 125.894 237.806 124.717 237.205C124.365 237.039 124.05 236.805 123.791 236.515C123.532 236.225 123.334 235.886 123.209 235.518C123.084 235.15 123.035 234.761 123.064 234.373C123.093 233.986 123.2 233.608 123.378 233.263C124.374 230.668 130.307 230.594 132.6 230.341C136.175 229.941 139.986 229.982 143.12 231.753C143.448 231.902 143.742 232.115 143.986 232.38C144.23 232.645 144.419 232.956 144.54 233.295C144.603 233.657 144.567 234.029 144.434 234.371C144.302 234.713 144.079 235.013 143.789 235.238H143.74C143.52 235.205 143.911 235.303 143.707 235.303Z" fill="#F9CFAA"/>
    <path d="M141.789 236.177L142.164 236.055C139.929 238.151 137.245 239.71 134.316 240.612C131.387 241.515 128.291 241.737 125.263 241.261C124.892 240.657 124.648 239.984 124.546 239.282C124.444 238.581 124.485 237.866 124.667 237.181C125.844 237.783 127.158 238.064 128.478 237.997C132.975 237.959 137.448 237.348 141.789 236.177V236.177Z" fill="#D8954C"/>
</svg>
