<svg width="354" height="355" viewBox="0 0 354 355" fill="none" xmlns="http://www.w3.org/2000/svg">
    <g filter="url(#filter0_f)">
        <path d="M270.449 140.05L143.398 82.3486L83.5536 214.118L210.604 271.82L270.449 140.05Z" fill="white"/>
        <path d="M147.184 92.8197L95.1289 207.437L209.717 259.478L261.772 144.861L147.184 92.8197Z" fill="#DCDCDC"/>
        <path d="M240.172 135.007C224.075 151.863 201.763 159.792 178.546 160.216C164.676 160.493 151.228 158.032 137.488 156.981C130.851 156.471 124.178 156.738 117.604 157.777L129.209 132.247C133.261 132.115 137.316 132.209 141.357 132.526C166.83 134.417 194.704 139.599 215.664 123.882L240.172 135.007Z" fill="#BFBCC5"/>
        <path d="M246.035 179.293L230.742 212.983C226.119 214.221 221.423 215.172 216.682 215.83C197.815 218.444 178.941 216.949 160.078 217.416C151.703 217.261 143.347 218.253 135.242 220.365C133.118 221.038 131.04 221.851 129.023 222.798L102.741 210.857C119.574 193.713 150.776 192.637 173.704 192.752C199.151 192.899 226.231 192.419 246.035 179.293Z" fill="#BFBCC5"/>
        <path d="M130.601 180.23L177.749 156.935L183.211 189.271L201.388 182.692L210.993 221.068L130.601 180.23Z" fill="white"/>
        <path d="M212.045 169.91C210.414 170.629 208.606 170.848 206.851 170.539C205.095 170.231 203.471 169.408 202.182 168.177C200.894 166.945 200 165.359 199.612 163.619C199.225 161.879 199.363 160.064 200.007 158.402C200.651 156.74 201.774 155.307 203.233 154.283C204.692 153.259 206.422 152.691 208.204 152.65C209.986 152.608 211.74 153.097 213.244 154.052C214.749 155.008 215.936 156.388 216.656 158.019C217.135 159.102 217.396 160.269 217.423 161.454C217.45 162.638 217.244 163.816 216.815 164.92C216.387 166.025 215.745 167.034 214.927 167.89C214.108 168.746 213.129 169.433 212.045 169.91Z" fill="white"/>
    </g>
    <defs>
        <filter id="filter0_f" x="77.5537" y="76.3486" width="198.895" height="201.471" filterUnits="userSpaceOnUse" color-interpolation-filters="sRGB">
            <feFlood flood-opacity="0" result="BackgroundImageFix"/>
            <feBlend mode="normal" in="SourceGraphic" in2="BackgroundImageFix" result="shape"/>
            <feGaussianBlur stdDeviation="3" result="effect1_foregroundBlur"/>
        </filter>
    </defs>
</svg>
