<svg width="558" height="301" viewBox="0 0 558 301" fill="none" xmlns="http://www.w3.org/2000/svg">
    <path d="M298.238 80.0373L81.3804 251.685L259.403 476.597L476.261 304.95L298.238 80.0373Z" fill="white"/>
    <path d="M103.269 254.503L258.118 450.138L453.704 295.327L298.855 99.6918L103.269 254.503Z" fill="#DCDCDC"/>
    <path d="M261.907 128.834C277.029 172.483 270.783 218.997 250.488 260.305C238.406 285.004 221.879 306.478 207.573 329.745C200.66 340.98 195.082 352.984 190.954 365.513L156.473 321.919C159.913 314.659 163.753 307.595 167.976 300.76C194.396 257.574 228.792 213.139 220.087 161.949L261.907 128.834Z" fill="#BFBCC5"/>
    <path d="M345.282 158.638L390.805 216.128C388.797 225.399 386.216 234.538 383.079 243.491C370.587 279.116 350.847 311.029 334.573 344.701C326.71 359.322 320.885 374.95 317.261 391.151C316.523 395.505 316.072 399.903 315.913 404.317L271.044 439.821C256.083 394.612 282.466 338.639 303.45 298.329C326.771 253.608 350.47 205.441 345.282 158.638Z" fill="#BFBCC5"/>
    <path d="M229.925 369.722L233.555 261.514L297.532 283.079L303.288 243.698L382.257 263.624L229.925 369.722Z" fill="white"/>
    <path d="M290.344 211.42C290.066 214.993 288.736 218.403 286.521 221.22C284.306 224.036 281.305 226.133 277.899 227.245C274.492 228.357 270.832 228.434 267.382 227.466C263.932 226.498 260.846 224.529 258.514 221.808C256.183 219.087 254.71 215.736 254.283 212.178C253.856 208.62 254.493 205.015 256.114 201.819C257.735 198.624 260.267 195.98 263.39 194.223C266.513 192.466 270.087 191.674 273.66 191.948C276.034 192.13 278.35 192.778 280.473 193.855C282.597 194.932 284.488 196.417 286.038 198.226C287.587 200.034 288.765 202.131 289.504 204.394C290.243 206.658 290.528 209.046 290.344 211.42Z" fill="white"/>
</svg>
